<svg id="_x31__px" enable-background="new 0 0 24 24" height="512" viewBox="0 0 24 24" width="512" xmlns="http://www.w3.org/2000/svg"><path d="m12 12h-8.5c-1.93 0-3.5-1.57-3.5-3.5s1.57-3.5 3.5-3.5h4.5c.551 0 1-.449 1-1v-3.5c0-.276.224-.5.5-.5s.5.224.5.5v3.5c0 1.103-.897 2-2 2h-4.5c-1.378 0-2.5 1.122-2.5 2.5s1.122 2.5 2.5 2.5h8.5c.276 0 .5.224.5.5s-.224.5-.5.5z"/><path d="m9.54 18h-6.04c-.933 0-1.812-.364-2.474-1.026s-1.026-1.541-1.026-2.474c0-1.93 1.57-3.5 3.5-3.5h9.56c.276 0 .5.224.5.5s-.224.5-.5.5h-9.56c-1.378 0-2.5 1.122-2.5 2.5 0 .666.26 1.293.733 1.767s1.101.733 1.767.733h6.04c.276 0 .5.224.5.5s-.224.5-.5.5z"/><path d="m3.5 24c-.276 0-.5-.224-.5-.5v-3c0-1.93 1.57-3.5 3.5-3.5h1.5c.276 0 .5.224.5.5s-.224.5-.5.5h-1.5c-1.378 0-2.5 1.122-2.5 2.5v3c0 .276-.224.5-.5.5z"/><path d="m10.48 15h-6.98c-.276 0-.5-.224-.5-.5s.224-.5.5-.5h6.98c.276 0 .5.224.5.5s-.224.5-.5.5z"/><path d="m16.75 10.02c-.139 0-.278-.058-.376-.171-.478-.548-1.144-.849-1.874-.849h-6c-.276 0-.5-.224-.5-.5s.224-.5.5-.5h6c1.008 0 1.966.434 2.626 1.191.182.208.16.524-.048.705-.094.083-.211.124-.328.124z"/><path d="m7.5 24c-.276 0-.5-.224-.5-.5v-1.5c0-1.103.897-2 2-2h1.47c.276 0 .5.224.5.5s-.224.5-.5.5h-1.47c-.551 0-1 .449-1 1v1.5c0 .276-.224.5-.5.5z"/><path d="m10.48 15h-6.98c-.276 0-.5-.224-.5-.5s.224-.5.5-.5h6.98c.276 0 .5.224.5.5s-.224.5-.5.5z"/><path d="m10.5 9h-7c-.276 0-.5-.224-.5-.5s.224-.5.5-.5h7c1.378 0 2.5-1.122 2.5-2.5v-5c0-.276.224-.5.5-.5s.5.224.5.5v5c0 1.93-1.57 3.5-3.5 3.5z"/><path d="m16.5 18c-.174 0-.343-.091-.435-.253-.137-.24-.053-.545.188-.682l.168-.096c.523-.297.715-.792.478-1.232-.131-.243-.041-.546.203-.677.243-.133.546-.04.677.203.5.925.136 2.009-.864 2.577l-.168.095c-.078.044-.163.065-.247.065z"/><path d="m17.5 21c-.045 0-.09-.006-.135-.019-.266-.075-.421-.351-.347-.616.139-.495.45-.897.876-1.133.455-.251 1.009-.3 1.56-.138l.187.055c.265.079.416.357.337.622-.078.265-.356.417-.622.337l-.186-.055c-.294-.087-.574-.067-.792.054-.193.107-.331.29-.398.528-.061.221-.261.365-.48.365z"/><path d="m16.447 24c-.102 0-.205-.015-.309-.05-.493-.168-.705-.657-.892-1.088-.083-.192-.198-.457-.285-.522-.085-.065-.358-.098-.557-.122-.43-.052-.965-.116-1.266-.548-.291-.417-.191-.932-.104-1.386.043-.226.098-.507.06-.63-.033-.105-.233-.297-.38-.437-.318-.305-.714-.684-.714-1.217s.396-.912.715-1.217c.146-.14.347-.332.38-.438.038-.123-.016-.404-.06-.63-.087-.454-.186-.967.104-1.385.301-.433.835-.497 1.265-.548.199-.024.471-.057.557-.122.087-.066.202-.33.286-.523.187-.431.399-.92.892-1.087.485-.164.95.108 1.323.328.179.106.425.25.538.25s.359-.145.539-.25c.373-.22.837-.492 1.323-.328.493.168.705.657.892 1.088.083.192.198.457.285.522.085.065.358.098.557.122.43.052.965.116 1.266.548.291.417.191.932.104 1.386-.043.226-.098.507-.06.63.033.105.233.297.38.437.318.305.714.684.714 1.217s-.396.912-.715 1.217c-.146.14-.347.332-.38.438-.038.123.016.404.06.63.087.454.186.967-.104 1.385-.301.433-.835.497-1.265.548-.199.024-.471.057-.557.122-.087.066-.202.33-.286.523-.187.431-.399.92-.892 1.087-.487.165-.95-.108-1.323-.328-.179-.106-.425-.25-.538-.25s-.359.145-.539.25c-.293.172-.642.378-1.014.378zm.006-11c-.001 0-.003 0-.004 0-.07.043-.21.364-.285.536-.148.342-.302.696-.596.92-.302.23-.696.277-1.044.319-.176.021-.505.061-.563.126-.047.083.021.436.057.625.068.353.145.753.033 1.116-.11.353-.381.612-.644.863-.153.146-.407.39-.407.495s.254.349.407.494c.262.251.534.511.644.863.112.362.035.762-.033 1.115-.037.189-.104.541-.057.626.058.064.387.104.563.125.348.042.741.089 1.043.318.294.225.448.578.597.92.075.172.214.494.3.541.075 0 .334-.153.489-.244.31-.183.66-.389 1.046-.389s.737.207 1.046.389c.155.091.401.252.505.24.07-.043.21-.364.285-.536.148-.342.302-.696.596-.92.302-.23.696-.277 1.044-.319.176-.021.505-.061.563-.126.047-.083-.021-.436-.057-.625-.068-.353-.145-.753-.033-1.116.11-.353.381-.612.644-.863.154-.144.408-.388.408-.493s-.254-.349-.407-.494c-.262-.251-.534-.511-.644-.863-.112-.362-.035-.762.033-1.115.037-.189.104-.541.057-.626-.058-.064-.387-.104-.563-.125-.348-.042-.741-.089-1.043-.318-.294-.225-.448-.578-.597-.92-.075-.172-.214-.494-.3-.541-.075 0-.334.153-.489.244-.31.183-.66.389-1.046.389s-.737-.207-1.046-.389c-.154-.092-.408-.242-.502-.242z"/></svg>