<svg id="Capa_1" enable-background="new 0 0 512 512" height="512" viewBox="0 0 512 512" width="512" xmlns="http://www.w3.org/2000/svg"><g><g><path d="m411.681 100.318c-41.583-41.584-96.872-64.485-155.681-64.485-51.94 0-102.372 18.443-142.007 51.934-3.352 2.83-3.567 7.928-.463 11.032l299.672 299.672c3.11 3.11 8.205 2.882 11.032-.463 33.489-39.636 51.933-90.068 51.933-142.008 0-58.809-22.902-114.098-64.486-155.682zm-200.1 21.539v-22.508c0-1.704 1.387-3.091 3.091-3.091h82.656c1.704 0 3.091 1.387 3.091 3.091v22.509c0 1.704-1.387 3.091-3.091 3.091h-82.656c-1.704-.001-3.091-1.387-3.091-3.092zm111.563 165.342c2.987-.873 5.891-2.157 8.633-3.859l6.524-4.049 31.507 54.572zm94.78 94.78-21.765-21.765c.61-5.821-.609-11.763-3.683-17.089l-60.983-105.625c-2.071-3.587-6.658-4.815-10.245-2.745-3.587 2.071-4.816 6.658-2.745 10.245l12.294 21.294-6.93 4.301c-4.544 2.819-9.866 3.632-14.867 2.459l-84.828-84.827c.255-1.532.391-3.086.391-4.648v-43.632h62.874v43.632c0 4.98 1.316 9.894 3.807 14.207l9.652 16.718c2.077 3.598 6.667 4.81 10.245 2.745 3.587-2.071 4.816-6.658 2.745-10.245l-9.652-16.718c-1.176-2.037-1.797-4.355-1.797-6.707v-44.378c7.493-2.211 12.982-9.144 12.982-17.344v-22.508c0-9.976-8.116-18.091-18.091-18.091h-82.656c-9.975 0-18.091 8.115-18.091 18.091v22.509c0 8.2 5.489 15.133 12.982 17.344v34.417l-79.543-79.543c35.893-27.94 80.312-43.243 125.98-43.243 113.129 0 205.167 92.037 205.167 205.167 0 45.668-15.303 90.087-43.243 125.979z"/><path d="m87.766 113.992c-33.489 39.637-51.933 90.07-51.933 142.008 0 58.809 22.901 114.098 64.485 155.682 41.583 41.584 96.873 64.485 155.681 64.485 51.94 0 102.372-18.443 142.007-51.934 3.352-2.83 3.567-7.928.463-11.032l-299.671-299.672c-3.162-3.161-8.249-2.829-11.032.463zm164.688 174.406 82.348 82.348h-190.671c-4.849 0-9.192-2.507-11.616-6.707-2.425-4.199-2.425-9.214 0-13.413l41.185-71.334 6.517 4.045c11.301 7.014 25.34 7.014 36.641 0 6.42-3.984 14.398-3.985 20.819.001 4.595 2.852 9.644 4.532 14.777 5.06zm-22.973-22.973c-7.063-.463-14.225 1.251-20.536 5.167-6.42 3.985-14.397 3.983-20.818 0l-6.924-4.298 17.989-31.158zm-109.957 77.701c-5.136 8.896-5.136 19.518 0 28.414s14.335 14.206 24.607 14.206h205.671l32.178 32.178c-35.893 27.94-80.312 43.243-125.98 43.243-113.129 0-205.167-92.037-205.167-205.167 0-45.667 15.302-90.086 43.242-125.979l94.136 94.136z"/><path d="m15 256c0-133.192 107.788-241 241-241 56.552 0 111.519 19.98 154.776 56.262 3.174 2.662 7.905 2.247 10.566-.927 2.662-3.173 2.247-7.904-.927-10.565-45.953-38.543-104.344-59.77-164.415-59.77-141.484 0-256 114.497-256 256 0 60.04 21.207 118.407 59.714 164.35 2.661 3.175 7.391 3.591 10.566.931 3.174-2.661 3.591-7.392.93-10.565-36.248-43.248-56.21-98.194-56.21-154.716z"/><path d="m446.394 84.864c-2.77-3.079-7.513-3.331-10.591-.561-3.08 2.77-3.331 7.512-.561 10.592 39.825 44.281 61.758 101.496 61.758 161.105 0 133.192-107.788 241-241 241-59.61 0-116.825-21.933-161.104-61.759-3.08-2.77-7.822-2.519-10.592.561s-2.519 7.822.561 10.592c47.038 42.306 107.815 65.606 171.135 65.606 141.484 0 256-114.497 256-256 0-63.32-23.299-124.097-65.606-171.136z"/></g></g></svg>